<?xml version="1.0" standalone="no"?>
<!DOCTYPE svg PUBLIC "-//W3C//DTD SVG 20010904//EN"
 "http://www.w3.org/TR/2001/REC-SVG-20010904/DTD/svg10.dtd">
<svg version="1.0" xmlns="http://www.w3.org/2000/svg"
 width="64.000000pt" height="62.000000pt" viewBox="0 0 64.000000 62.000000"
 preserveAspectRatio="xMidYMid meet">

<g transform="translate(0.000000,62.000000) scale(0.100000,-0.100000)"
fill="#000000" stroke="none">
<path d="M107 598 c-18 -19 -30 -64 -66 -250 -26 -140 -40 -238 -36 -256 3
-16 20 -42 36 -58 l30 -29 249 0 249 0 30 29 c16 16 33 42 36 58 4 18 -10 116
-36 256 -36 186 -48 231 -66 250 -21 21 -28 22 -213 22 -185 0 -192 -1 -213
-22z m252 -114 c18 -30 31 -57 29 -60 -3 -2 -19 1 -36 7 -23 8 -41 8 -64 0
-17 -6 -33 -9 -36 -7 -5 5 60 116 68 116 3 0 20 -25 39 -56z m6 -68 l30 -13
-35 -21 c-19 -12 -37 -22 -40 -22 -3 0 -21 10 -40 22 l-35 21 30 13 c17 7 37
13 45 13 8 0 29 -6 45 -13z m-10 -47 c19 11 35 19 35 16 0 -9 -64 -105 -70
-105 -6 0 -70 96 -70 105 0 3 16 -5 35 -16 l35 -21 35 21z m211 -192 c37 -33
37 -81 0 -114 -27 -23 -31 -23 -246 -23 -215 0 -219 0 -246 23 -37 33 -37 81
0 114 27 23 31 23 246 23 215 0 219 0 246 -23z"/>
<path d="M275 130 c-12 -19 10 -32 51 -28 27 2 39 8 39 18 0 19 -79 27 -90 10z"/>
</g>
</svg>
